# xmcd CD database file
#
# Track frame offsets:
#	150
#	10780
#	23437
#	38407
#	53262
#	62337
#	75449
#	91436
#	105696
#	119174
#	131854
#	143510
#	156833
#	171738
#	184181
#	196563
#	217548
#	231655
#	249094
#	262721
#	277008
#	301984
#
# Disc length: 4373 seconds
#
# Revision: 2
# Processed by: cddbd v1.5.1PL0 Copyright (c) Steve Scherf et al.
# Submitted via: CDex 1.40Beta6
#
DISCID=14111316
DTITLE=Louis Armstrong - What a Wonderful World
DYEAR=1900
DGENRE=Trip-Hop
TTITLE0=What A Wonderfull World
TTITLE1=Cabaret
TTITLE2=The Home Fire
TTITLE3=Dream A Little Dream Of Me
TTITLE4=Give Me Your Kisses (I'll Give You My Heart)
TTITLE5=The Sunshine Of Love
TTITLE6=Hello Brother
TTITLE7=There Must Be A Way
TTITLE8=Fantastic, That's You
TTITLE9=I Guess I'll Get The Papers And Go Home
TTITLE10=Hellzapoppin'
TTITLE11=Moon River
TTITLE12=Blueberry Hill
TTITLE13=When The Saints Go Marchin' In
TTITLE14=Kokomo
TTITLE15=Jeepers Creepers
TTITLE16=Georgia In My Mind
TTITLE17=Basin Street Blues
TTITLE18=Struttin' With Some Barbecue
TTITLE19=Moments To Remember
TTITLE20=Otchi-tchor-ni-ya
TTITLE21=On The Sunny Side Of The Street
EXTD=
EXTT0=
EXTT1=
EXTT2=
EXTT3=
EXTT4=
EXTT5=
EXTT6=
EXTT7=
EXTT8=
EXTT9=
EXTT10=
EXTT11=
EXTT12=
EXTT13=
EXTT14=
EXTT15=
EXTT16=
EXTT17=
EXTT18=
EXTT19=
EXTT20=
EXTT21=
PLAYORDER=
